<mxfile host="app.diagrams.net" agent="Mozilla/5.0 (Windows NT 10.0; Win64; x64) AppleWebKit/537.36 (KHTML, like Gecko) Chrome/133.0.0.0 Safari/537.36 OPR/118.0.0.0 (Edition std-2)" version="27.0.9">
  <diagram name="Страница — 1" id="zuhOUFEAUgPxKYiW0h1A">
    <mxGraphModel dx="873" dy="782" grid="1" gridSize="10" guides="1" tooltips="1" connect="1" arrows="1" fold="1" page="1" pageScale="1" pageWidth="827" pageHeight="1169" math="0" shadow="0">
      <root>
        <mxCell id="0" />
        <mxCell id="1" parent="0" />
        <mxCell id="S9Ba3ydLvkP-LubQu80q-5" style="edgeStyle=orthogonalEdgeStyle;rounded=0;orthogonalLoop=1;jettySize=auto;html=1;exitX=0.5;exitY=1;exitDx=0;exitDy=0;entryX=0.5;entryY=0;entryDx=0;entryDy=0;" edge="1" parent="1" source="S9Ba3ydLvkP-LubQu80q-1" target="S9Ba3ydLvkP-LubQu80q-4">
          <mxGeometry relative="1" as="geometry" />
        </mxCell>
        <mxCell id="S9Ba3ydLvkP-LubQu80q-1" value="&lt;span style=&quot;font-size: 19px;&quot;&gt;Навыки Python&lt;/span&gt;" style="ellipse;whiteSpace=wrap;html=1;" vertex="1" parent="1">
          <mxGeometry x="320" y="120" width="200" height="170" as="geometry" />
        </mxCell>
        <mxCell id="S9Ba3ydLvkP-LubQu80q-7" value="" style="edgeStyle=orthogonalEdgeStyle;rounded=0;orthogonalLoop=1;jettySize=auto;html=1;" edge="1" parent="1" source="S9Ba3ydLvkP-LubQu80q-4" target="S9Ba3ydLvkP-LubQu80q-6">
          <mxGeometry relative="1" as="geometry">
            <mxPoint x="200" y="410" as="targetPoint" />
          </mxGeometry>
        </mxCell>
        <mxCell id="S9Ba3ydLvkP-LubQu80q-11" style="edgeStyle=orthogonalEdgeStyle;rounded=0;orthogonalLoop=1;jettySize=auto;html=1;entryX=1;entryY=0.5;entryDx=0;entryDy=0;" edge="1" parent="1" source="S9Ba3ydLvkP-LubQu80q-4" target="S9Ba3ydLvkP-LubQu80q-10">
          <mxGeometry relative="1" as="geometry">
            <mxPoint x="180" y="420" as="targetPoint" />
          </mxGeometry>
        </mxCell>
        <mxCell id="S9Ba3ydLvkP-LubQu80q-23" style="edgeStyle=orthogonalEdgeStyle;rounded=0;orthogonalLoop=1;jettySize=auto;html=1;" edge="1" parent="1" source="S9Ba3ydLvkP-LubQu80q-4" target="S9Ba3ydLvkP-LubQu80q-22">
          <mxGeometry relative="1" as="geometry" />
        </mxCell>
        <mxCell id="S9Ba3ydLvkP-LubQu80q-25" style="edgeStyle=orthogonalEdgeStyle;rounded=0;orthogonalLoop=1;jettySize=auto;html=1;" edge="1" parent="1" source="S9Ba3ydLvkP-LubQu80q-4" target="S9Ba3ydLvkP-LubQu80q-24">
          <mxGeometry relative="1" as="geometry" />
        </mxCell>
        <mxCell id="S9Ba3ydLvkP-LubQu80q-27" style="edgeStyle=orthogonalEdgeStyle;rounded=0;orthogonalLoop=1;jettySize=auto;html=1;" edge="1" parent="1" source="S9Ba3ydLvkP-LubQu80q-4" target="S9Ba3ydLvkP-LubQu80q-26">
          <mxGeometry relative="1" as="geometry">
            <mxPoint x="190" y="660" as="targetPoint" />
            <Array as="points">
              <mxPoint x="250" y="475" />
              <mxPoint x="250" y="660" />
            </Array>
          </mxGeometry>
        </mxCell>
        <mxCell id="S9Ba3ydLvkP-LubQu80q-29" value="" style="edgeStyle=orthogonalEdgeStyle;rounded=0;orthogonalLoop=1;jettySize=auto;html=1;" edge="1" parent="1" source="S9Ba3ydLvkP-LubQu80q-4" target="S9Ba3ydLvkP-LubQu80q-28">
          <mxGeometry relative="1" as="geometry" />
        </mxCell>
        <mxCell id="S9Ba3ydLvkP-LubQu80q-4" value="&lt;span style=&quot;font-size: 19px;&quot;&gt;Основы Python&lt;br&gt;&lt;/span&gt;" style="ellipse;whiteSpace=wrap;html=1;" vertex="1" parent="1">
          <mxGeometry x="320" y="390" width="200" height="170" as="geometry" />
        </mxCell>
        <UserObject label="&lt;font style=&quot;font-size: 19px;&quot;&gt;Переменные&lt;/font&gt;" link="https://skillbox.ru/media/code/peremennye-v-python-chto-eto-takoe-i-kakie-oni-byvayut/" linkTarget="_blank" id="S9Ba3ydLvkP-LubQu80q-6">
          <mxCell style="ellipse;whiteSpace=wrap;html=1;fillColor=#008a00;fontColor=#ffffff;strokeColor=#005700;" vertex="1" parent="1">
            <mxGeometry x="40" y="320" width="140" height="125" as="geometry" />
          </mxCell>
        </UserObject>
        <UserObject label="&lt;font style=&quot;font-size: 19px;&quot;&gt;Циклы&lt;/font&gt;" link="https://skillbox.ru/media/code/tsikly-v-python-kak-rabotayut-i-kakie-byvayut/" linkTarget="_blank" id="S9Ba3ydLvkP-LubQu80q-10">
          <mxCell style="ellipse;whiteSpace=wrap;html=1;fillColor=#008a00;fontColor=#ffffff;strokeColor=#005700;" vertex="1" parent="1">
            <mxGeometry x="40" y="460" width="140" height="125" as="geometry" />
          </mxCell>
        </UserObject>
        <mxCell id="S9Ba3ydLvkP-LubQu80q-12" value="" style="ellipse;whiteSpace=wrap;html=1;fillColor=#008a00;fontColor=#ffffff;strokeColor=#005700;" vertex="1" parent="1">
          <mxGeometry x="10" y="10" width="80" height="80" as="geometry" />
        </mxCell>
        <mxCell id="S9Ba3ydLvkP-LubQu80q-13" value="" style="ellipse;whiteSpace=wrap;html=1;fillColor=light-dark(#6A00FF,#FFFF00);strokeColor=#3700CC;fontColor=#ffffff;" vertex="1" parent="1">
          <mxGeometry x="10" y="100" width="80" height="80" as="geometry" />
        </mxCell>
        <mxCell id="S9Ba3ydLvkP-LubQu80q-14" value="" style="ellipse;whiteSpace=wrap;html=1;fillColor=light-dark(#FF0038,#FF3916);fontColor=#ffffff;strokeColor=#6F0000;" vertex="1" parent="1">
          <mxGeometry x="10" y="190" width="80" height="80" as="geometry" />
        </mxCell>
        <mxCell id="S9Ba3ydLvkP-LubQu80q-16" value="" style="edgeStyle=orthogonalEdgeStyle;rounded=0;orthogonalLoop=1;jettySize=auto;html=1;" edge="1" parent="1" source="S9Ba3ydLvkP-LubQu80q-15" target="S9Ba3ydLvkP-LubQu80q-12">
          <mxGeometry relative="1" as="geometry" />
        </mxCell>
        <mxCell id="S9Ba3ydLvkP-LubQu80q-15" value="Изучено" style="text;html=1;align=center;verticalAlign=middle;resizable=0;points=[];autosize=1;strokeColor=none;fillColor=none;" vertex="1" parent="1">
          <mxGeometry x="120" y="35" width="70" height="30" as="geometry" />
        </mxCell>
        <mxCell id="S9Ba3ydLvkP-LubQu80q-19" value="" style="edgeStyle=orthogonalEdgeStyle;rounded=0;orthogonalLoop=1;jettySize=auto;html=1;" edge="1" parent="1" source="S9Ba3ydLvkP-LubQu80q-17" target="S9Ba3ydLvkP-LubQu80q-13">
          <mxGeometry relative="1" as="geometry" />
        </mxCell>
        <mxCell id="S9Ba3ydLvkP-LubQu80q-17" value="В процессе" style="text;html=1;align=center;verticalAlign=middle;resizable=0;points=[];autosize=1;strokeColor=none;fillColor=none;" vertex="1" parent="1">
          <mxGeometry x="110" y="125" width="90" height="30" as="geometry" />
        </mxCell>
        <mxCell id="S9Ba3ydLvkP-LubQu80q-20" value="" style="edgeStyle=orthogonalEdgeStyle;rounded=0;orthogonalLoop=1;jettySize=auto;html=1;" edge="1" parent="1" source="S9Ba3ydLvkP-LubQu80q-18" target="S9Ba3ydLvkP-LubQu80q-14">
          <mxGeometry relative="1" as="geometry" />
        </mxCell>
        <mxCell id="S9Ba3ydLvkP-LubQu80q-18" value="Не изучено" style="text;html=1;align=center;verticalAlign=middle;resizable=0;points=[];autosize=1;strokeColor=none;fillColor=none;" vertex="1" parent="1">
          <mxGeometry x="110" y="215" width="90" height="30" as="geometry" />
        </mxCell>
        <UserObject label="&lt;font style=&quot;font-size: 19px;&quot;&gt;Функции&lt;/font&gt;" link="https://skillbox.ru/media/code/funktsii-v-python-dlya-chego-oni-nuzhny-i-kak-s-nimi-rabotat/" linkTarget="_blank" id="S9Ba3ydLvkP-LubQu80q-22">
          <mxCell style="ellipse;whiteSpace=wrap;html=1;fillColor=#008a00;fontColor=#ffffff;strokeColor=#005700;" vertex="1" parent="1">
            <mxGeometry x="630" y="320" width="140" height="125" as="geometry" />
          </mxCell>
        </UserObject>
        <UserObject label="&lt;font style=&quot;font-size: 19px;&quot;&gt;ООП&lt;/font&gt;" link="https://skillbox.ru/media/code/kak-izbezhat-putanitsy-v-kode-ili-kratkiy-kurs-oop-na-python/" linkTarget="_blank" id="S9Ba3ydLvkP-LubQu80q-24">
          <mxCell style="ellipse;whiteSpace=wrap;html=1;fillColor=light-dark(#6A00FF,#FFFF00);strokeColor=#3700CC;fontColor=#ffffff;" vertex="1" parent="1">
            <mxGeometry x="630" y="460" width="140" height="120" as="geometry" />
          </mxCell>
        </UserObject>
        <UserObject label="&lt;font style=&quot;font-size: 19px;&quot;&gt;Условия&lt;/font&gt;" link="https://skillbox.ru/media/code/uslovnye-operatory-v-python-ot-prostykh-esli-do-vlozhennykh-konstruktsiy/" linkTarget="_blank" id="S9Ba3ydLvkP-LubQu80q-26">
          <mxCell style="ellipse;whiteSpace=wrap;html=1;fillColor=#008a00;fontColor=#ffffff;strokeColor=#005700;" vertex="1" parent="1">
            <mxGeometry x="40" y="600" width="140" height="125" as="geometry" />
          </mxCell>
        </UserObject>
        <mxCell id="S9Ba3ydLvkP-LubQu80q-32" style="edgeStyle=orthogonalEdgeStyle;rounded=0;orthogonalLoop=1;jettySize=auto;html=1;" edge="1" parent="1" source="S9Ba3ydLvkP-LubQu80q-28" target="S9Ba3ydLvkP-LubQu80q-31">
          <mxGeometry relative="1" as="geometry" />
        </mxCell>
        <mxCell id="S9Ba3ydLvkP-LubQu80q-28" value="&lt;span style=&quot;font-size: 19px;&quot;&gt;Веб&lt;br&gt;&lt;/span&gt;" style="ellipse;whiteSpace=wrap;html=1;" vertex="1" parent="1">
          <mxGeometry x="320" y="640" width="200" height="170" as="geometry" />
        </mxCell>
        <UserObject label="&lt;font style=&quot;font-size: 19px;&quot;&gt;Flask&lt;/font&gt;" link="https://flask.palletsprojects.com/en/stable/" linkTarget="_blank" id="S9Ba3ydLvkP-LubQu80q-31">
          <mxCell style="ellipse;whiteSpace=wrap;html=1;fillColor=light-dark(#FF0038,#FF3916);fontColor=#ffffff;strokeColor=#6F0000;" vertex="1" parent="1">
            <mxGeometry x="610" y="662.5" width="150" height="125" as="geometry" />
          </mxCell>
        </UserObject>
      </root>
    </mxGraphModel>
  </diagram>
</mxfile>
